<mxfile host="app.diagrams.net" modified="2024-03-28T11:07:54.136Z" agent="Mozilla/5.0 (Windows NT 10.0; Win64; x64) AppleWebKit/537.36 (KHTML, like Gecko) Chrome/122.0.0.0 Safari/537.36" version="23.1.7" etag="LDbm3RKBVcRx84lM_qKN" type="github">
  <diagram name="第 1 页" id="dCVLqBrOp_b_CEfyryZ2">
    <mxGraphModel>
      <root>
        <mxCell id="0" />
        <mxCell id="1" parent="0" />
      </root>
    </mxGraphModel>
  </diagram>
</mxfile>
